<svg id="visual" viewBox="0 0 1500 500" width="1500" height="500" xmlns="http://www.w3.org/2000/svg" xmlns:xlink="http://www.w3.org/1999/xlink" version="1.1"><path d="M0 36L167 36L167 26L333 26L333 76L500 76L500 31L667 31L667 61L833 61L833 71L1000 71L1000 41L1167 41L1167 36L1333 36L1333 46L1500 46L1500 76L1500 0L1500 0L1333 0L1333 0L1167 0L1167 0L1000 0L1000 0L833 0L833 0L667 0L667 0L500 0L500 0L333 0L333 0L167 0L167 0L0 0Z" fill="#2e266b"></path><path d="M0 96L167 96L167 66L333 66L333 141L500 141L500 121L667 121L667 146L833 146L833 131L1000 131L1000 96L1167 96L1167 111L1333 111L1333 101L1500 101L1500 111L1500 74L1500 44L1333 44L1333 34L1167 34L1167 39L1000 39L1000 69L833 69L833 59L667 59L667 29L500 29L500 74L333 74L333 24L167 24L167 34L0 34Z" fill="#27215e"></path><path d="M0 191L167 191L167 101L333 101L333 216L500 216L500 206L667 206L667 221L833 221L833 211L1000 211L1000 211L1167 211L1167 146L1333 146L1333 156L1500 156L1500 196L1500 109L1500 99L1333 99L1333 109L1167 109L1167 94L1000 94L1000 129L833 129L833 144L667 144L667 119L500 119L500 139L333 139L333 64L167 64L167 94L0 94Z" fill="#211c51"></path><path d="M0 251L167 251L167 306L333 306L333 346L500 346L500 266L667 266L667 306L833 306L833 376L1000 376L1000 256L1167 256L1167 356L1333 356L1333 376L1500 376L1500 281L1500 194L1500 154L1333 154L1333 144L1167 144L1167 209L1000 209L1000 209L833 209L833 219L667 219L667 204L500 204L500 214L333 214L333 99L167 99L167 189L0 189Z" fill="#1b1845"></path><path d="M0 471L167 471L167 426L333 426L333 431L500 431L500 421L667 421L667 436L833 436L833 431L1000 431L1000 446L1167 446L1167 416L1333 416L1333 451L1500 451L1500 426L1500 279L1500 374L1333 374L1333 354L1167 354L1167 254L1000 254L1000 374L833 374L833 304L667 304L667 264L500 264L500 344L333 344L333 304L167 304L167 249L0 249Z" fill="#151339"></path><path d="M0 501L167 501L167 501L333 501L333 501L500 501L500 501L667 501L667 501L833 501L833 501L1000 501L1000 501L1167 501L1167 501L1333 501L1333 501L1500 501L1500 501L1500 424L1500 449L1333 449L1333 414L1167 414L1167 444L1000 444L1000 429L833 429L833 434L667 434L667 419L500 419L500 429L333 429L333 424L167 424L167 469L0 469Z" fill="#110d2d"></path></svg>