<svg id="visual" viewBox="0 0 900 600" width="900" height="600" xmlns="http://www.w3.org/2000/svg" xmlns:xlink="http://www.w3.org/1999/xlink" version="1.1"><path d="M0 420L16.7 421.7C33.3 423.3 66.7 426.7 100 412.2C133.3 397.7 166.7 365.3 200 373.2C233.3 381 266.7 429 300 430.8C333.3 432.7 366.7 388.3 400 385.3C433.3 382.3 466.7 420.7 500 429.8C533.3 439 566.7 419 600 419.3C633.3 419.7 666.7 440.3 700 459.7C733.3 479 766.7 497 800 501.8C833.3 506.7 866.7 498.3 883.3 494.2L900 490L900 0L883.3 0C866.7 0 833.3 0 800 0C766.7 0 733.3 0 700 0C666.7 0 633.3 0 600 0C566.7 0 533.3 0 500 0C466.7 0 433.3 0 400 0C366.7 0 333.3 0 300 0C266.7 0 233.3 0 200 0C166.7 0 133.3 0 100 0C66.7 0 33.3 0 16.7 0L0 0Z" fill="#fa7268"></path><path d="M0 287L16.7 287C33.3 287 66.7 287 100 304.8C133.3 322.7 166.7 358.3 200 371.7C233.3 385 266.7 376 300 368.8C333.3 361.7 366.7 356.3 400 342.3C433.3 328.3 466.7 305.7 500 308.2C533.3 310.7 566.7 338.3 600 337.8C633.3 337.3 666.7 308.7 700 302.3C733.3 296 766.7 312 800 336.2C833.3 360.3 866.7 392.7 883.3 408.8L900 425L900 0L883.3 0C866.7 0 833.3 0 800 0C766.7 0 733.3 0 700 0C666.7 0 633.3 0 600 0C566.7 0 533.3 0 500 0C466.7 0 433.3 0 400 0C366.7 0 333.3 0 300 0C266.7 0 233.3 0 200 0C166.7 0 133.3 0 100 0C66.7 0 33.3 0 16.7 0L0 0Z" fill="#f56662"></path><path d="M0 299L16.7 292C33.3 285 66.7 271 100 275.8C133.3 280.7 166.7 304.3 200 304.7C233.3 305 266.7 282 300 264.7C333.3 247.3 366.7 235.7 400 232C433.3 228.3 466.7 232.7 500 235.5C533.3 238.3 566.7 239.7 600 237.5C633.3 235.3 666.7 229.7 700 236.7C733.3 243.7 766.7 263.3 800 282.8C833.3 302.3 866.7 321.7 883.3 331.3L900 341L900 0L883.3 0C866.7 0 833.3 0 800 0C766.7 0 733.3 0 700 0C666.7 0 633.3 0 600 0C566.7 0 533.3 0 500 0C466.7 0 433.3 0 400 0C366.7 0 333.3 0 300 0C266.7 0 233.3 0 200 0C166.7 0 133.3 0 100 0C66.7 0 33.3 0 16.7 0L0 0Z" fill="#f0595d"></path><path d="M0 200L16.7 209.7C33.3 219.3 66.7 238.7 100 239C133.3 239.3 166.7 220.7 200 200.5C233.3 180.3 266.7 158.7 300 149.2C333.3 139.7 366.7 142.3 400 144.2C433.3 146 466.7 147 500 158.8C533.3 170.7 566.7 193.3 600 211.8C633.3 230.3 666.7 244.7 700 255.3C733.3 266 766.7 273 800 264.8C833.3 256.7 866.7 233.3 883.3 221.7L900 210L900 0L883.3 0C866.7 0 833.3 0 800 0C766.7 0 733.3 0 700 0C666.7 0 633.3 0 600 0C566.7 0 533.3 0 500 0C466.7 0 433.3 0 400 0C366.7 0 333.3 0 300 0C266.7 0 233.3 0 200 0C166.7 0 133.3 0 100 0C66.7 0 33.3 0 16.7 0L0 0Z" fill="#eb4b59"></path><path d="M0 138L16.7 138.2C33.3 138.3 66.7 138.7 100 147.2C133.3 155.7 166.7 172.3 200 178.8C233.3 185.3 266.7 181.7 300 181C333.3 180.3 366.7 182.7 400 186.5C433.3 190.3 466.7 195.7 500 200.3C533.3 205 566.7 209 600 207.5C633.3 206 666.7 199 700 179.2C733.3 159.3 766.7 126.7 800 111.7C833.3 96.7 866.7 99.3 883.3 100.7L900 102L900 0L883.3 0C866.7 0 833.3 0 800 0C766.7 0 733.3 0 700 0C666.7 0 633.3 0 600 0C566.7 0 533.3 0 500 0C466.7 0 433.3 0 400 0C366.7 0 333.3 0 300 0C266.7 0 233.3 0 200 0C166.7 0 133.3 0 100 0C66.7 0 33.3 0 16.7 0L0 0Z" fill="#e63c54"></path><path d="M0 126L16.7 126.8C33.3 127.7 66.7 129.3 100 129.5C133.3 129.7 166.7 128.3 200 118.5C233.3 108.7 266.7 90.3 300 88C333.3 85.7 366.7 99.3 400 101.8C433.3 104.3 466.7 95.7 500 82.7C533.3 69.7 566.7 52.3 600 55.5C633.3 58.7 666.7 82.3 700 89.7C733.3 97 766.7 88 800 88.7C833.3 89.3 866.7 99.7 883.3 104.8L900 110L900 0L883.3 0C866.7 0 833.3 0 800 0C766.7 0 733.3 0 700 0C666.7 0 633.3 0 600 0C566.7 0 533.3 0 500 0C466.7 0 433.3 0 400 0C366.7 0 333.3 0 300 0C266.7 0 233.3 0 200 0C166.7 0 133.3 0 100 0C66.7 0 33.3 0 16.7 0L0 0Z" fill="#e02950"></path></svg>