<svg id="visual" viewBox="0 0 2000 500" width="2000" height="500" xmlns="http://www.w3.org/2000/svg" xmlns:xlink="http://www.w3.org/1999/xlink" version="1.1"><path d="M0 46L182 81L364 86L545 111L727 126L909 46L1091 76L1273 76L1455 111L1636 96L1818 101L2000 61L2000 0L1818 0L1636 0L1455 0L1273 0L1091 0L909 0L727 0L545 0L364 0L182 0L0 0Z" fill="#fa7268"></path><path d="M0 121L182 161L364 181L545 156L727 206L909 131L1091 116L1273 171L1455 171L1636 196L1818 201L2000 101L2000 59L1818 99L1636 94L1455 109L1273 74L1091 74L909 44L727 124L545 109L364 84L182 79L0 44Z" fill="#f46361"></path><path d="M0 356L182 356L364 261L545 306L727 366L909 276L1091 266L1273 241L1455 251L1636 296L1818 316L2000 256L2000 99L1818 199L1636 194L1455 169L1273 169L1091 114L909 129L727 204L545 154L364 179L182 159L0 119Z" fill="#ee525b"></path><path d="M0 426L182 441L364 331L545 336L727 416L909 351L1091 311L1273 321L1455 326L1636 331L1818 356L2000 336L2000 254L1818 314L1636 294L1455 249L1273 239L1091 264L909 274L727 364L545 304L364 259L182 354L0 354Z" fill="#e74055"></path><path d="M0 501L182 501L364 501L545 501L727 501L909 501L1091 501L1273 501L1455 501L1636 501L1818 501L2000 501L2000 334L1818 354L1636 329L1455 324L1273 319L1091 309L909 349L727 414L545 334L364 329L182 439L0 424Z" fill="#e02950"></path></svg>