<svg id="visual" viewBox="0 0 960 540" width="960" height="540" xmlns="http://www.w3.org/2000/svg" xmlns:xlink="http://www.w3.org/1999/xlink" version="1.1"><path d="M0 286L22.8 292.8C45.7 299.7 91.3 313.3 137 336.3C182.7 359.3 228.3 391.7 274 396.3C319.7 401 365.3 378 411.2 370.5C457 363 503 371 548.8 362C594.7 353 640.3 327 686 337.3C731.7 347.7 777.3 394.3 823 404.7C868.7 415 914.3 389 937.2 376L960 363L960 0L937.2 0C914.3 0 868.7 0 823 0C777.3 0 731.7 0 686 0C640.3 0 594.7 0 548.8 0C503 0 457 0 411.2 0C365.3 0 319.7 0 274 0C228.3 0 182.7 0 137 0C91.3 0 45.7 0 22.8 0L0 0Z" fill="#fa7268"></path><path d="M0 218L22.8 239.8C45.7 261.7 91.3 305.3 137 308.5C182.7 311.7 228.3 274.3 274 276C319.7 277.7 365.3 318.3 411.2 330C457 341.7 503 324.3 548.8 325.2C594.7 326 640.3 345 686 339C731.7 333 777.3 302 823 282.3C868.7 262.7 914.3 254.3 937.2 250.2L960 246L960 0L937.2 0C914.3 0 868.7 0 823 0C777.3 0 731.7 0 686 0C640.3 0 594.7 0 548.8 0C503 0 457 0 411.2 0C365.3 0 319.7 0 274 0C228.3 0 182.7 0 137 0C91.3 0 45.7 0 22.8 0L0 0Z" fill="#ef5f67"></path><path d="M0 285L22.8 270.7C45.7 256.3 91.3 227.7 137 207.2C182.7 186.7 228.3 174.3 274 186C319.7 197.7 365.3 233.3 411.2 239.3C457 245.3 503 221.7 548.8 216.8C594.7 212 640.3 226 686 229.8C731.7 233.7 777.3 227.3 823 232.8C868.7 238.3 914.3 255.7 937.2 264.3L960 273L960 0L937.2 0C914.3 0 868.7 0 823 0C777.3 0 731.7 0 686 0C640.3 0 594.7 0 548.8 0C503 0 457 0 411.2 0C365.3 0 319.7 0 274 0C228.3 0 182.7 0 137 0C91.3 0 45.7 0 22.8 0L0 0Z" fill="#e34c67"></path><path d="M0 186L22.8 186.5C45.7 187 91.3 188 137 190.8C182.7 193.7 228.3 198.3 274 194.5C319.7 190.7 365.3 178.3 411.2 170.5C457 162.7 503 159.3 548.8 153.7C594.7 148 640.3 140 686 143.7C731.7 147.3 777.3 162.7 823 164.7C868.7 166.7 914.3 155.3 937.2 149.7L960 144L960 0L937.2 0C914.3 0 868.7 0 823 0C777.3 0 731.7 0 686 0C640.3 0 594.7 0 548.8 0C503 0 457 0 411.2 0C365.3 0 319.7 0 274 0C228.3 0 182.7 0 137 0C91.3 0 45.7 0 22.8 0L0 0Z" fill="#d53867"></path><path d="M0 69L22.8 67.7C45.7 66.3 91.3 63.7 137 70.8C182.7 78 228.3 95 274 105.7C319.7 116.3 365.3 120.7 411.2 110.7C457 100.7 503 76.3 548.8 77.7C594.7 79 640.3 106 686 107.3C731.7 108.7 777.3 84.3 823 71.7C868.7 59 914.3 58 937.2 57.5L960 57L960 0L937.2 0C914.3 0 868.7 0 823 0C777.3 0 731.7 0 686 0C640.3 0 594.7 0 548.8 0C503 0 457 0 411.2 0C365.3 0 319.7 0 274 0C228.3 0 182.7 0 137 0C91.3 0 45.7 0 22.8 0L0 0Z" fill="#c62368"></path></svg>
